<svg xmlns="http://www.w3.org/2000/svg" width="407" height="275"><rect id="backgroundrect" width="100%" height="100%" x="0" y="0" fill="none" stroke="none"/><g class="currentLayer" style=""><title>Layer 1</title><path class="st1" d="M197.94442789554597,274.3999991416931 v-8 c7.1,1.9 15.8,-0.30000000000000027 24.2,-8.6 c0.7000000000000005,0.8 1.4,1.5 2.1,2.3 c-6.3,10.4 -16.6,14.9 -26.3,14.3 zm0,-33.2 v-4.6 h14.5 c0.30000000000000027,-8.4 -3.4,-14.8 -13.3,-15 h-1.2 v-4.3 c0.6000000000000005,0 1.2,-0.1 1.9,-0.1 c17.4,-0.1 23.5,9.3 23.4,23.9 h-25.3 v0.1 zm34,29 v2.8 h28.7 v-2.5 c-4.5,-0.30000000000000027 -8.8,-0.6000000000000005 -9,-4.2 v-30.7 c4.4,-8.5 15.5,-17.3 19.1,-5.2 h6.8 v-10.1 c-7.6,-5.8 -16.4,-3.2 -26.4,8.7 v-6.1 c0.1,-2.9 -0.8,-4.8 -3.8,-4.3 c-5.2,0.7000000000000005 -10.5,1.9 -15.9,2.5 v2.9 h5.2 c2.7,0.1 3.8,1.8 4.2,4.3 v38.5 c-0.5,2.7 -4.1,3.4 -8.9,3.4 zm49.2,0 v2.8 h28.7 v-2.5 c-4.5,-0.30000000000000027 -8.8,-0.6000000000000005 -9,-4.2 v-73.6 c0.1,-2.9 -0.8,-4.8 -3.8,-4.3 c-5.2,0.7000000000000005 -11,1.9 -16.4,2.5 v2.9 h5.2 c2.7,0.1 3.8,1.8 4.2,4.3 v68.6 c-0.5,2.8 -4.1,3.5 -8.9,3.5 zm39,0 v2.8 h28.7 v-2.5 c-4.5,-0.30000000000000027 -8.8,-0.6000000000000005 -9,-4.2 v-43.5 c0.1,-2.9 -0.8,-4.8 -3.8,-4.3 c-5.2,0.7000000000000005 -11,1.9 -16.4,2.5 v2.9 h5.2 c2.7,0.1 3.8,1.8 4.2,4.3 v38.5 c-0.5,2.8 -4.2,3.5 -8.9,3.5 zm13.6,-73.5 c3.5,0 6.3,2.8 6.3,6.3 s-2.8,6.3 -6.3,6.3 s-6.3,-2.8 -6.3,-6.3 s2.8,-6.3 6.3,-6.3 zm61.1,35.9 h8.1 v-9 c-6.1,-3.7 -11.8,-6.9 -21.5,-6.2 c-18.4,1.6 -27,14.4 -25.9,30.7 c1.3,11.9 6,24.3 24.7,26.3 c11.4,0.9 22.5,-7.2 26.3,-14.9 c-0.7000000000000005,-0.6000000000000005 -1.4,-1.2 -2.1,-1.7000000000000002 c-13.8,16.4 -37.3,10.4 -38.5,-10.2 c-1.4,-14.9 5.9,-25.4 17,-25.9 c7.1,0.1 11.1,3.8 11.9,10.9 zm-196.9,-15.3 v4.3 c-10,0.7000000000000005 -13.4,9.9 -14.5,15 h14.5 v4.6 h-14.9 c-1.2,12.8 5.4,22.7 14.9,25.2 v8 c-12.5,-0.8 -24,-10.1 -24.7,-26.1 c0.2,-17.9 9.5,-30.1 24.7,-31 zm-60.4,57 v-4.6 c9.2,-0.9 16.2,-9.5 16.2,-23.3 c0,-14.2 -7.2,-21.7 -16.2,-21.7 V217.39999914169312 c12.8,-2.2 26.5,4.9 26.7,26.2 c0,19.2 -11.1,30 -26.7,30.7 zm0,-56.9 v7.3 c-5.1,0 -10.9,2.4 -16.2,7.3 v32.2 c5.6,4.3 11.3,6 16.2,5.5 v4.6 c-7.9,0.4 -17,-1.8 -26.4,-6.7 v-68.6 c-0.4,-3.6 -2.7,-5.1 -6.4,-5.1 h-3 v-3.1 c6.5,-0.2 13.1,-2.3 19.5,-2.6 v38.3 c4.1,-4.8 10.1,-8 16.3,-9.1 zm-70.7,55.9 v-6.7 c3.8,-0.6000000000000005 8.2,-2.3 12.3,-5 v-16.4 c-4.7,0.30000000000000027 -8.9,1 -12.3,1.9 v-4.6 c4.2,-0.8 8.4,-1.4 12.3,-1.9 v-8.5 c-0.5,-6.7 -3.8,-10.8 -11.1,-11 c-0.4,0 -0.8,0.1 -1.2,0.1 V217.39999914169312 c0.4,0 0.9,0 1.3,-0.1 c14.6,-0.2 20,5.7 21.3,14.5 v31.1 c1.1,6.1 4.6,5 8.6,2.8 c0.5,0.9 1,1.7000000000000002 1.5,2.6 c-7.9,7 -15.2,9.8 -19.9,-2.6 c-4.3,3.8 -8.6,6.2 -12.8,7.6 zm-23.5,-71.4 c0.1,-3.2 0.1,-6.4 0.1,-9.6 h-0.1 v9.6 zm23.5,15.6 v3.8 c-6.5,0.8 -10.4,5 -11.8,12.5 h-7.7 v-9.1 c6,-5 12.6,-6.9 19.5,-7.2 zm0,25 v4.6 c-8.6,2.4 -13,6.7 -12.2,13.7 c0.9,4.9 5.9,6.8 12.2,5.8 v6.7 c-12.2,4 -22.5,-1.3 -23.4,-11.5 v-2.8 c0.9,-10.2 11.8,-14.3 23.4,-16.5 zm-66.8,30.5 h31.2 v-3.4 h-6.8 c-3.3,-0.30000000000000027 -4.9,-1.9 -5.5,-4.3 v-42.4 h13.6 v-4.1 h-13.6 v-17.1 c0.2,-5.2 3,-9.4 8.3,-9.6 c5.1,0 8.1,4.8 8.4,9.7 h7.8 v-9.6 c-5.3,-2.7 -10.8,-4.3 -16.4,-4 c-11.7,0.8 -17.9,10.2 -18.1,21.1 v9.5 h-8.9 v4.1 h8.7 v41.9 c-0.30000000000000027,2.7 -1.9,4.2 -4.7,4.8 h-4 c-0.1,1.2 0,2.3 0,3.4 zm43.3,-14.1 v2.8 c0,-0.4 -0.1,-0.9 -0.1,-1.4 c0.1,-0.4 0.1,-0.9 0.1,-1.4 zM122.34442789554595,160.7999991416931 v6.8 H178.14442789554596 v-6.8 h-9.7 c-4.9,-1 -7.6,-3.4 -7.9,-7.5 v-85.3 h24 v-8.5 H160.14442789554596 v-34.2 c1.7000000000000002,-11.6 11.2,-17.6 21.7,-17.6 c12,0 18.7,5.1 20,16 V152.39999914169312 c-0.4,6.2 -5.8,8.5 -14.4,8.3 v6.9 h94.6 l3,-39.3 h-8.1 c-3.2,17.8 -11.1,29.2 -26.6,30.2 h-28.1 V18.099999141693104 c0.5,-9.3 6.5,-12.6 16.2,-11.9 v-6.2 h-56.9 c-36.7,3.5 -41.8,29.5 -42,48.3 v11.4 h-17 v8.2 h17 v84.3 c-1.1,6.1 -5.3,8.5 -11.5,8.6 h-5.7 z" id="svg_1"/></g></svg>