<?xml version="1.0" encoding="utf-8"?>
<!-- Generator: Adobe Illustrator 14.0.0, SVG Export Plug-In . SVG Version: 6.00 Build 43363)  -->
<!DOCTYPE svg PUBLIC "-//W3C//DTD SVG 1.1//EN" "http://www.w3.org/Graphics/SVG/1.1/DTD/svg11.dtd">
<svg version="1.1" id="Layer_1" xmlns="http://www.w3.org/2000/svg" xmlns:xlink="http://www.w3.org/1999/xlink" x="0px" y="0px"
	 width="612px" height="792px" viewBox="0 0 612 792" enable-background="new 0 0 612 792" xml:space="preserve">
<g>
	<polygon fill-rule="evenodd" clip-rule="evenodd" fill="#FFFFFF" points="209,300 401.756,300 401.756,492.756 209,492.756 
		209,300 	"/>
	<path fill-rule="evenodd" clip-rule="evenodd" d="M284.931,448.504l0.292,1.166l-0.438,12.686c1.021-1.166,2.187-2.188,3.5-2.916
		c1.312-0.584,2.333-0.875,3.354-0.875c2.187,0,3.791,0.729,4.811,2.041c1.167,1.313,1.75,3.207,1.75,5.686
		c0,3.063-0.729,5.541-2.333,7.438c-1.458,1.895-3.354,2.77-5.541,2.77l-2.624-0.438c-0.729-0.291-1.75-0.729-2.917-1.457v1.311
		l-4.228,0.146l-1.896,0.146l-0.583-0.146l-0.146-0.291l0.729-0.584l3.062-0.582l-0.146-21.143l-0.146-1.895
		c-0.146-0.293-0.292-0.439-0.729-0.439l-1.167,0.439l-1.167,0.291h-0.292v-0.146l0.292-0.875l1.458-1.02l2.624-1.313l1.896-0.438
		L284.931,448.504L284.931,448.504z M284.785,463.668l0.146,9.186l2.479,2.041c0.875,0.438,1.75,0.729,2.479,0.729
		c1.604,0,2.77-0.582,3.646-1.895c0.728-1.313,1.167-3.207,1.167-5.688c0-2.186-0.438-4.082-1.313-5.395
		c-0.729-1.313-1.895-2.041-3.499-2.041c-0.729,0-1.604,0.146-2.479,0.584C286.535,461.625,285.66,462.502,284.785,463.668
		L284.785,463.668z M304.47,461.043c0.874-1.02,2.041-1.604,3.645-1.604c1.458,0,2.624,0.584,3.354,1.604
		c0.729,1.02,1.166,2.479,1.166,4.082l-9.623,0.438C303.011,463.668,303.448,462.209,304.47,461.043L304.47,461.043z
		 M299.803,467.75c0,2.625,0.729,4.811,2.188,6.416c1.604,1.604,3.499,2.332,5.832,2.332l3.791-0.729
		c1.021-0.438,1.896-1.313,2.916-2.479l0.875-1.313l0.438-1.02l-0.146-0.293l-0.292-0.145l-0.729,0.727l-0.874,1.021l-1.896,1.459
		l-2.333,0.584c-1.896,0-3.5-0.73-4.812-2.188c-1.313-1.459-1.896-3.355-1.896-5.541h13.123V466c0-2.332-0.583-4.229-1.896-5.541
		s-3.062-2.041-5.395-2.041c-2.625,0-4.811,0.875-6.416,2.625C300.678,462.793,299.803,464.979,299.803,467.75L299.803,467.75z
		 M316.717,460.459l0.146,0.293l0.438,0.145l3.062-0.145l0.146,1.75v11.955l-3.208,0.729c-0.438,0.146-0.729,0.438-0.729,0.584
		l0.292,0.291l0.438,0.146l1.749-0.146h7.874l1.749,0.146l0.584-0.146l0.146-0.291c0-0.293-0.438-0.584-1.459-0.875l-4.229-0.438
		v-3.645c0-2.771,0.438-4.957,1.166-6.563c0.73-1.748,1.604-2.625,2.625-2.625l1.021,0.584c0.438,0.438,1.021,0.584,1.458,0.584
		l1.459-0.584c0.438-0.438,0.583-0.875,0.583-1.604s-0.292-1.166-0.729-1.459c-0.437-0.436-1.021-0.582-1.749-0.582
		c-1.021,0-2.042,0.582-3.063,1.604s-1.896,2.625-2.771,4.666v-4.811l-0.291-1.168l-0.438-0.438l-1.458,0.438l-2.479,0.73
		l-1.021,0.291C317.154,460.023,316.717,460.168,316.717,460.459L316.717,460.459z M254.895,455.502l0.437-2.479
		c0.583-2.77,1.167-4.082,1.75-4.082c0.292,0,0.583,0.291,0.729,0.729l0.146,0.293l0.875,0.873l1.021,0.291
		c0.729,0,1.166-0.145,1.603-0.582c0.438-0.438,0.584-1.021,0.584-1.75s-0.146-1.313-0.584-1.75
		c-0.437-0.438-1.02-0.582-1.749-0.582c-1.021,0-1.896,0.291-2.624,0.875c-0.875,0.582-1.896,1.75-2.917,3.352
		c-0.875,1.313-1.604,2.625-2.041,3.938c-0.292,1.021-0.438,2.479-0.583,4.375v2.188h-1.021l-2.187-0.438v1.895l2.187-0.291h1.021
		l-0.146,12.102l-3.062,0.729l-0.729,0.584l0.146,0.291l0.583,0.146l1.896-0.146l9.477,0.146l0.583-0.146l0.146-0.291
		c0-0.293-0.438-0.584-1.313-0.875l-4.228-0.438l-0.291-12.102h1.457l4.375,0.291v-1.895l-5.832,0.438L254.895,455.502
		L254.895,455.502z M268.31,466.729l1.749,0.293l2.188,0.582v4.229c-0.729,0.729-1.604,1.459-2.479,1.896
		c-0.729,0.438-1.604,0.584-2.479,0.584c-1.021,0-1.75-0.293-2.333-0.875c-0.438-0.439-0.729-1.313-0.729-2.625
		s0.291-2.332,1.021-3.063C265.976,467.021,266.997,466.729,268.31,466.729L268.31,466.729z M264.664,461.625
		c1.312-0.582,2.625-0.873,4.082-0.873c1.313,0,2.334,0.291,2.771,0.727c0.438,0.439,0.583,1.605,0.583,3.355v1.75l-2.479-0.729
		l-2.187-0.293c-2.042,0-3.645,0.584-4.812,1.605c-1.167,1.166-1.75,2.623-1.75,4.373c0,1.313,0.438,2.625,1.313,3.645
		c1.021,0.875,2.188,1.313,3.5,1.313c0.875,0,1.896-0.291,3.062-0.875l3.354-2.479v1.75c0,0.582,0.146,1.02,0.438,1.313
		c0.146,0.145,0.583,0.291,1.021,0.291c1.021,0,2.188-0.438,3.645-1.457c1.313-1.021,2.042-1.75,2.042-2.48v-0.291h-0.291
		l-1.021,0.729c-0.729,0.584-1.313,0.875-1.75,0.875s-0.583-0.145-0.729-0.436c-0.146-0.146-0.291-0.877-0.291-1.896v-9.77
		c-0.146-0.582-0.292-1.02-0.584-1.457l-1.749-1.313l-2.625-0.584c-1.75,0-3.5,0.438-5.395,1.459
		c-1.75,0.875-2.625,1.602-2.625,2.332l0.146,0.146l0.292,0.146L264.664,461.625L264.664,461.625z M331.151,476.061l0.583,0.146
		l4.666-0.293l4.812,0.293l0.584-0.146l0.145-0.291l-0.729-0.584l-2.917-0.729l-0.145-24.787l-0.292-1.313
		c0-0.146-0.146-0.291-0.438-0.291l-1.896,0.438l-2.624,1.313l-1.313,1.02l-0.438,0.875l0.146,0.146h0.292l2.333-0.73
		c0.292,0,0.438,0.146,0.583,0.439l0.291,1.895l-0.146,20.996l-3.062,0.729c-0.438,0.146-0.584,0.438-0.584,0.584L331.151,476.061
		L331.151,476.061z M342.816,460.752l0.437,0.145l3.063-0.145l0.146,1.75l0.146,9.768l-0.292,2.188l-2.917,0.729
		c-0.437,0.146-0.729,0.291-0.729,0.584l0.146,0.291l0.582,0.146l4.812-0.293l4.666,0.293l0.729-0.146l0.146-0.291l-0.876-0.584
		l-2.915-0.729l-0.292-15.164l-0.146-0.875l-0.292-0.146l-4.081,1.314l-1.167,0.291c-0.729,0.146-1.166,0.291-1.166,0.582V460.752
		L342.816,460.752z M352.439,468.041c0,2.48,0.874,4.52,2.479,6.125c1.604,1.604,3.499,2.332,5.686,2.332
		c1.459,0,2.771-0.291,3.791-0.729c1.167-0.438,2.041-1.166,2.771-2.188l0.874-1.313l0.292-0.875v-0.436h-0.292
		c-0.146,0-0.438,0.145-0.729,0.582l-0.583,0.729c-0.729,0.729-1.313,1.313-1.896,1.459l-2.333,0.584
		c-2.188,0-3.937-0.875-5.249-2.48c-1.313-1.604-2.041-3.645-2.041-6.123c0-1.75,0.437-3.207,1.457-4.375
		c1.021-1.02,2.333-1.604,3.937-1.604c1.021,0,1.896,0.293,2.917,0.729l2.915,2.043l0.438,3.207
		c0.146,0.438,0.292,0.729,0.582,0.729l0.292-0.146v-1.604l-0.292-2.332l0.438-4.666l-0.146-0.291h-0.292
		c-0.29,0-0.582,0.582-0.728,1.748l-0.146,0.293l-2.625-0.729l-2.187-0.146c-2.771,0-4.958,0.875-6.561,2.77
		C353.313,463.084,352.439,465.271,352.439,468.041L352.439,468.041z"/>
	<path fill-rule="evenodd" clip-rule="evenodd" d="M325.902,317.715v106.73c0,1.895,0.26,3.373,1.021,4.666
		c0.697,1.186,1.741,2.064,3.354,2.625l3.354,1.166l3.791,0.582h3.063l4.957-0.436l4.082-1.021l2.771-1.75
		c3.01-1.9,5.78-5.438,7.729-10.352l3.354-8.457h4.52l-2.041,27.119l-66.342,0.146v-5.25l3.937-0.291l3.354-0.729
		c1.624-0.354,2.604-1.326,3.208-2.334c0.708-1.178,1.166-2.77,1.166-4.664c0-31.397,0-62.794,0-94.191
		c0-2.479-1.166-4.666-3.354-6.27c-2.186-1.604-4.958-2.479-8.311-2.479c-6.2,0-11.211,2.209-15.019,7.146
		c-1.835,2.379-3.499,5.686-4.665,10.06c-1.021,4.229-1.604,9.186-1.604,14.873v6.561h19.246v7.582h-19.246v55.844
		c0,1.895,0.291,3.354,1.02,4.52c0.729,1.166,1.722,2.123,3.354,2.625l3.791,1.166l4.229,0.582v5.25h-38.492v-5.25l3.645-0.291
		l3.354-0.729c1.625-0.354,2.569-1.342,3.208-2.479c0.674-1.199,1.167-2.77,1.167-4.666v-56.573h-15.31v-7.582h15.31v-1.896
		c0-6.999,0.875-13.123,2.77-18.226c1.896-5.104,5.004-9.873,9.186-14.435c6.054-6.604,15.966-10.318,24.787-10.353
		c5.049-0.02,9.316,0.483,13.997,2.187c1.656,0.603,2.917,1.021,4.229,1.021c2.187,0,4.373-1.021,6.27-3.062L325.902,317.715
		L325.902,317.715z"/>
</g>
</svg>
